<svg width="800" height="56" viewBox="0 0 800 56" fill="none" xmlns="http://www.w3.org/2000/svg">
    <mask id="path-1-inside-1_2096_1766" fill="white">
        <path d="M0 8C0 3.58172 3.58172 0 8 0H792C796.418 0 800 3.58172 800 8V48C800 52.4183 796.418 56 792 56H7.99999C3.58171 56 0 52.4183 0 48V8Z"/>
    </mask>
    <path d="M0 8C0 3.58172 3.58172 0 8 0H792C796.418 0 800 3.58172 800 8V48C800 52.4183 796.418 56 792 56H7.99999C3.58171 56 0 52.4183 0 48V8Z" fill="#262323"/>
    <path d="M8 0V1H792V0V-1H8V0ZM800 8H799V48H800H801V8H800ZM792 56V55H7.99999V56V57H792V56ZM0 48H1V8H0H-1V48H0ZM7.99999 56V55C4.134 55 1 51.866 1 48H0H-1C-1 52.9706 3.02943 57 7.99999 57V56ZM800 48H799C799 51.866 795.866 55 792 55V56V57C796.971 57 801 52.9706 801 48H800ZM792 0V1C795.866 1 799 4.13401 799 8H800H801C801 3.02944 796.971 -1 792 -1V0ZM8 0V-1C3.02944 -1 -1 3.02944 -1 8H0H1C1 4.13401 4.13401 1 8 1V0Z" fill="url(#paint0_linear_2096_1766)" fill-opacity="0.7" mask="url(#path-1-inside-1_2096_1766)"/>
    <path d="M21 28H35M28 21V35" stroke="white" stroke-width="1.5" stroke-linecap="round" stroke-linejoin="round"/>
    <path d="M57.7969 34.2266C57.0677 34.2266 56.4089 34.0964 55.8203 33.8359C55.237 33.5755 54.737 33.1771 54.3203 32.6406C53.9089 32.1094 53.599 31.4714 53.3906 30.7266C53.1875 29.9766 53.0859 29.1302 53.0859 28.1875C53.0859 27.2448 53.1875 26.3984 53.3906 25.6484C53.599 24.8984 53.9115 24.2552 54.3281 23.7188C54.7448 23.1823 55.2448 22.7839 55.8281 22.5234C56.4115 22.2578 57.0677 22.125 57.7969 22.125C58.0469 22.125 58.2865 22.1406 58.5156 22.1719C58.75 22.1979 58.9609 22.2344 59.1484 22.2812C59.3359 22.3281 59.5417 22.3958 59.7656 22.4844C59.9896 22.5677 60.1953 22.6615 60.3828 22.7656V24.3828C60.0026 24.0651 59.5885 23.8229 59.1406 23.6562C58.9167 23.5729 58.6927 23.5104 58.4688 23.4688C58.25 23.4271 58.0234 23.4062 57.7891 23.4062C57.2839 23.4062 56.8385 23.5052 56.4531 23.7031C56.0729 23.901 55.7552 24.1979 55.5 24.5938C54.9896 25.3854 54.7344 26.5807 54.7344 28.1797C54.7344 29.7734 54.9896 30.9661 55.5 31.7578C56.0104 32.5495 56.7786 32.9453 57.8047 32.9453C58.0391 32.9453 58.2656 32.9245 58.4844 32.8828C58.7083 32.8411 58.9323 32.7786 59.1562 32.6953C59.5885 32.5339 59.9974 32.2917 60.3828 31.9688V33.5859C59.9766 33.7995 59.5651 33.9609 59.1484 34.0703C58.9453 34.1224 58.7266 34.1615 58.4922 34.1875C58.263 34.2135 58.0312 34.2266 57.7969 34.2266ZM63.1172 25.25H69.7969V34H68.3594V26.4219H64.5547V34H63.1172V25.25ZM72.7656 25.25H74.0703L74.2109 26.3672C74.4609 25.9193 74.7839 25.5859 75.1797 25.3672C75.5807 25.1484 76.0443 25.0391 76.5703 25.0391C77.0911 25.0391 77.5573 25.1458 77.9688 25.3594C78.3854 25.5677 78.7396 25.8698 79.0312 26.2656C79.3229 26.6615 79.5469 27.1432 79.7031 27.7109C79.8594 28.2786 79.9375 28.9219 79.9375 29.6406C79.9375 30.3594 79.8594 31.0026 79.7031 31.5703C79.5469 32.1328 79.3229 32.612 79.0312 33.0078C78.7396 33.4036 78.3854 33.7057 77.9688 33.9141C77.5521 34.1224 77.0833 34.2266 76.5625 34.2266C76.0156 34.2266 75.5443 34.1146 75.1484 33.8906C74.7578 33.6667 74.4453 33.3359 74.2109 32.8984V37.3281H72.7656V25.25ZM76.3359 33.0078C77.0339 33.0078 77.5573 32.7266 77.9062 32.1641C78.2552 31.5964 78.4297 30.7526 78.4297 29.6328C78.4297 28.513 78.2552 27.6719 77.9062 27.1094C77.5573 26.5417 77.0339 26.2578 76.3359 26.2578C75.6328 26.2578 75.1016 26.5417 74.7422 27.1094C74.388 27.6771 74.2109 28.5182 74.2109 29.6328C74.2109 30.7474 74.388 31.5885 74.7422 32.1562C75.1016 32.724 75.6328 33.0078 76.3359 33.0078ZM85.7344 34.2266C84.5104 34.2266 83.5807 33.8385 82.9453 33.0625C82.3099 32.2812 81.9922 31.1406 81.9922 29.6406C81.9922 28.8958 82.0729 28.237 82.2344 27.6641C82.3958 27.0911 82.6354 26.612 82.9531 26.2266C83.2708 25.8359 83.6615 25.5417 84.125 25.3438C84.5885 25.1406 85.125 25.0391 85.7344 25.0391C86.3438 25.0391 86.8802 25.1406 87.3438 25.3438C87.8125 25.5417 88.2031 25.8359 88.5156 26.2266C88.8333 26.612 89.0729 27.0911 89.2344 27.6641C89.401 28.237 89.4844 28.8958 89.4844 29.6406C89.4844 31.1302 89.1641 32.2682 88.5234 33.0547C87.8828 33.8359 86.9531 34.2266 85.7344 34.2266ZM85.7344 33.0078C86.474 33.0078 87.0286 32.724 87.3984 32.1562C87.7734 31.5885 87.9609 30.7474 87.9609 29.6328C87.9609 28.513 87.7734 27.6719 87.3984 27.1094C87.0286 26.5417 86.474 26.2578 85.7344 26.2578C85 26.2578 84.4453 26.5417 84.0703 27.1094C83.7005 27.6719 83.5156 28.513 83.5156 29.6328C83.5156 30.7474 83.7005 31.5885 84.0703 32.1562C84.4453 32.724 85 33.0078 85.7344 33.0078ZM96.125 34.2266C95.474 34.2266 94.8802 34.125 94.3438 33.9219C93.8125 33.7135 93.3594 33.4089 92.9844 33.0078C92.6042 32.6016 92.3177 32.1172 92.125 31.5547C91.9375 30.987 91.8438 30.3464 91.8438 29.6328C91.8438 28.888 91.9427 28.2344 92.1406 27.6719C92.3438 27.1094 92.6276 26.6354 92.9922 26.25C93.3776 25.8438 93.8333 25.5417 94.3594 25.3438C94.8906 25.1406 95.4818 25.0391 96.1328 25.0391C96.3724 25.0391 96.5938 25.0521 96.7969 25.0781C97 25.1042 97.2005 25.1458 97.3984 25.2031C97.7943 25.3125 98.1979 25.4818 98.6094 25.7109V27.2188C98.4167 27.0521 98.2266 26.9062 98.0391 26.7812C97.8516 26.6562 97.6615 26.5573 97.4688 26.4844C97.0781 26.3333 96.6458 26.2578 96.1719 26.2578C95.2656 26.2578 94.5703 26.5495 94.0859 27.1328C93.6016 27.7214 93.3594 28.5521 93.3594 29.625C93.3594 30.125 93.4141 30.5885 93.5234 31.0156C93.638 31.4427 93.8255 31.8125 94.0859 32.125C94.5755 32.7135 95.2786 33.0078 96.1953 33.0078C96.4557 33.0078 96.6927 32.987 96.9062 32.9453C97.125 32.9036 97.3255 32.8464 97.5078 32.7734C97.7422 32.6849 97.9427 32.5833 98.1094 32.4688C98.2812 32.349 98.4479 32.2135 98.6094 32.0625V33.5547C98.4323 33.6589 98.2396 33.7552 98.0312 33.8438C97.8229 33.9323 97.6198 34.0052 97.4219 34.0625C97.2396 34.1146 97.0391 34.1536 96.8203 34.1797C96.6068 34.2109 96.375 34.2266 96.125 34.2266ZM101.727 25.25H103.164V31.5703L106.969 25.25H108.406V34H106.969V27.6797L103.164 34H101.727V25.25ZM119.961 25.25H121.398L124.328 30.6484L127.258 25.25H128.695V34H127.258V28.2109L125.047 31.9688H123.609L121.398 28.2109V34H119.961V25.25ZM134.414 34.2266C133.737 34.2266 133.13 34.1224 132.594 33.9141C132.062 33.7005 131.609 33.3958 131.234 33C130.865 32.6042 130.581 32.125 130.383 31.5625C130.19 31 130.094 30.3672 130.094 29.6641C130.094 28.9609 130.19 28.3255 130.383 27.7578C130.581 27.1849 130.857 26.6979 131.211 26.2969C131.57 25.8906 132 25.5807 132.5 25.3672C133 25.1484 133.555 25.0391 134.164 25.0391C134.742 25.0391 135.258 25.138 135.711 25.3359C136.164 25.5286 136.547 25.8073 136.859 26.1719C137.172 26.5365 137.409 26.9792 137.57 27.5C137.737 28.0208 137.82 28.6094 137.82 29.2656V29.9688H131.594V30.0156C131.594 30.4948 131.656 30.9193 131.781 31.2891C131.911 31.6589 132.096 31.9714 132.336 32.2266C132.581 32.4818 132.88 32.6771 133.234 32.8125C133.589 32.9427 133.99 33.0078 134.438 33.0078C134.906 33.0078 135.388 32.9349 135.883 32.7891C136.383 32.6432 136.917 32.4219 137.484 32.125V33.5547C136.932 33.7786 136.404 33.9453 135.898 34.0547C135.398 34.1693 134.904 34.2266 134.414 34.2266ZM136.383 28.8438C136.367 28.026 136.172 27.3906 135.797 26.9375C135.427 26.4844 134.888 26.2578 134.18 26.2578C133.471 26.2578 132.893 26.4844 132.445 26.9375C132.003 27.3854 131.737 28.0234 131.648 28.8516L136.383 28.8438ZM140.242 25.25H141.68V28.8047H145.484V25.25H146.922V34H145.484V29.9766H141.68V34H140.242V25.25ZM151.922 30.2578C151.792 30.2057 151.628 30.1276 151.43 30.0234C151.232 29.9193 151.039 29.7734 150.852 29.5859C150.669 29.3984 150.51 29.1615 150.375 28.875C150.245 28.5833 150.18 28.2214 150.18 27.7891C150.18 27.3411 150.255 26.9583 150.406 26.6406C150.562 26.3177 150.773 26.0547 151.039 25.8516C151.305 25.6432 151.612 25.4922 151.961 25.3984C152.31 25.2995 152.68 25.25 153.07 25.25H156.172V34H154.734V30.4453H153.227L151.211 34H149.797L151.922 30.2578ZM154.734 29.2734V26.4219H152.961C152.815 26.4219 152.664 26.4505 152.508 26.5078C152.352 26.5599 152.208 26.6432 152.078 26.7578C151.948 26.8724 151.841 27.0208 151.758 27.2031C151.674 27.3854 151.633 27.6016 151.633 27.8516C151.633 28.1016 151.674 28.3177 151.758 28.5C151.841 28.6771 151.948 28.8229 152.078 28.9375C152.208 29.0521 152.352 29.138 152.508 29.1953C152.664 29.2474 152.812 29.2734 152.953 29.2734H154.734ZM158.906 34C158.75 34 158.672 33.9219 158.672 33.7656V31.8516C158.672 31.6953 158.75 31.6172 158.906 31.6172H160.406C160.562 31.6172 160.641 31.6953 160.641 31.8516V33.7656C160.641 33.9219 160.562 34 160.406 34H158.906ZM162.102 34C161.945 34 161.867 33.9219 161.867 33.7656V31.8516C161.867 31.6953 161.945 31.6172 162.102 31.6172H163.602C163.758 31.6172 163.836 31.6953 163.836 31.8516V33.7656C163.836 33.9219 163.758 34 163.602 34H162.102ZM165.305 34C165.148 34 165.07 33.9219 165.07 33.7656V31.8516C165.07 31.6953 165.148 31.6172 165.305 31.6172H166.805C166.961 31.6172 167.039 31.6953 167.039 31.8516V33.7656C167.039 33.9219 166.961 34 166.805 34H165.305Z" fill="#767882"/>
    <path d="M748 20C748 15.5817 751.582 12 756 12H780C784.418 12 788 15.5817 788 20V36C788 40.4183 784.418 44 780 44H756C751.582 44 748 40.4183 748 36V20Z" fill="white"/>
    <path d="M763 23H773M773 23V33M773 23L763 33" stroke="#262323" stroke-width="1.5" stroke-linecap="round" stroke-linejoin="round"/>
    <defs>
        <linearGradient id="paint0_linear_2096_1766" x1="0" y1="0" x2="314.756" y2="419.813" gradientUnits="userSpaceOnUse">
            <stop stop-color="white"/>
            <stop offset="1" stop-color="#AA56A8"/>
        </linearGradient>
    </defs>
</svg>
