<svg width="42" height="120" viewBox="0 0 42 120" fill="none" xmlns="http://www.w3.org/2000/svg">
    <path opacity="0.4" d="M38.8189 120C30.6012 120 25.084 118.434 22.2675 115.302C19.4509 112.212 18.0426 105.968 18.0426 96.5714V81.3968C18.0426 75.0476 17.1645 70.6243 15.4083 68.127C13.6189 65.672 10.4047 64.4444 5.76568 64.4444H0V55.3651H5.76568C10.4379 55.3651 13.6521 54.1587 15.4083 51.746C17.1645 49.291 18.0426 44.91 18.0426 38.6032V23.3651C18.0426 13.9683 19.4509 7.72487 22.2675 4.63492C25.0178 1.54497 30.5349 0 38.8189 0H42V9.07936H38.5207C33.8817 9.07936 30.8663 9.98942 29.4746 11.8095C28.0497 13.6296 27.3373 17.5661 27.3373 23.619V39.3651C27.3373 46.0529 26.5917 50.8783 25.1006 53.8413C24.3716 55.2804 23.3609 56.5291 22.0686 57.5873C20.7763 58.6032 19.2024 59.3862 17.3467 59.9365C21.0249 61.0794 23.6095 63.1534 25.1006 66.1587C26.5917 69.164 27.3373 73.9683 27.3373 80.5714V96.3175C27.3373 102.37 28.0497 106.307 29.4746 108.127C30.8663 109.947 33.8817 110.857 38.5207 110.857H42V120H38.8189Z" fill="#B2B1B1"/>
</svg>
